<?xml version="1.0" encoding="UTF-8"?>
<svg id="Camada_1" xmlns="http://www.w3.org/2000/svg" version="1.1" viewBox="0 0 3840 2160">
  <!-- Generator: Adobe Illustrator 30.2.1, SVG Export Plug-In . SVG Version: 2.1.1 Build 1)  -->
  <path d="M2262.2,761.5h212.4s7.7,28,7.7,28c12.9,47.1,16.8,95.2,16.1,144.6-1.9,131.8-46.9,258.3-130.7,359.3-56.4,67.9-119.3,117.2-199,155.1-88.9,42.2-181.7,59.8-279.7,54.5-186-10-355.1-109.9-454.6-267.8-29.5-46.7-52.6-97.8-67.3-151.6-13.5-49.6-22.2-98.2-22.6-149.6-.7-85.8,22.2-188.4,61.4-264.6,26.1-50.8,56.8-97.8,97.3-138.5l174.5-175.2,252.1-252.8,140.1-.3,137.9.2c24.7-1.1,47.3-1.6,71.9,1.1-3.8,5.8-8.4,7.4-12.7,11.7l-203.6,204-365.7,365.8c-84.8,84.8-122,191.9-98,311,9.1,45.1,28.9,85.6,55.1,122.7,81.1,115,226,164.6,360.6,124.1,101.9-30.6,181-104,216.5-205.3,26.2-74.6,30.4-159.1-3-230.5l-21-45,54.4-.9Z"/>
  <path d="M1170.4,760.4c9.5,0,16.9,1,26.3,1.6,31.2,107.1,33,193.1,7.6,302.3-20.8,89.2-63,170.2-122.5,239.6-79,92.2-191.2,159.8-309.8,185.3-44.8,9.7-88.2,16-133.9,14.4-75.1-2.7-135.5-12.8-205.4-40.3-56.3-22.2-107.4-52.7-154.6-91.3-86.1-70.4-148.4-165.2-183.3-270.6-18.1-61.1-27.6-121.7-26.6-185.3,2.1-53.6,8.4-105.6,25.4-156h265.7c-36.5,66.6-49.7,137.9-39.9,212.3,10.6,82.3,53.2,156.4,117.2,209,78.9,64.8,171.1,85.8,271.2,68.2,37.9-6.7,71.6-20.3,104.7-39.5,93.2-53.8,154.7-154.8,160.6-262,3.9-71.4-8.8-123.4-41.8-186.2l39.5-1.5h199.7Z"/>
  <path d="M3751.7,761.9c24.7,83.7,28.4,186.6,13.4,271.4-6.9,39.3-18.4,75.8-33.3,113-39.1,97.4-104.6,179.9-188.5,243-68.2,51.3-147.4,85.9-231.1,103-119,24.3-248.1,8.7-357.4-42.5-162-75.9-280.8-223.3-318.5-398.2-23.1-107.2-18.2-184.2,8.9-289.9,9.5-.5,16.9-1.4,25.4-1.4l238.8-.2c1.5,0,3.4,2.2.6,7.1-59,103.8-54.8,239.9,14.7,342,69.3,101.8,179.7,155.8,302.9,145.4,169.4-14.3,299.3-155.7,299.8-326.7.2-58.8-12.9-114.4-43-165.9l35.7-1.8h211.8c6.1-.1,11.7.8,19.8,1.7Z"/>
  <polygon points="3262.9 761.3 3079.4 760.9 3031.8 760.2 2885 613 2741 468.7 2620.6 348.8 2620.9 196.7 2621.8 103 2726.5 102.7 3775.2 102.7 3775 312.5 3773.3 351.2 2972.3 351.1 3363 742.4 3381.1 760 3262.9 761.3"/>
  <path d="M970.2,601.1l-143.3,143.5-15.7,16-244.4.5c-34.2,0-66.1,1.6-104-1.1l366.9-367.6,39.8-41.1H67.9c0,0-.2-248.4-.2-248.4h80.7c0,0,1018.9,0,1018.9,0h55.7c0,0-.3,15.7-.3,15.7l.4,72.4c.2,30.5.5,60.1,0,90.6l-1,67.4-252.2,252.2Z"/>
  <path d="M2989.4,1935l45.1,8.3c12.2,2.2,23,5.2,35.8,9.2-30.2,95.9-142.1,128.6-228.7,92.5-48.6-20.3-82.9-58.7-98.4-108.9-27.3-88.1,4-187.6,90.9-229.7,40.2-19.5,85.2-20.6,127.7-8.3,90.6,26.2,124.1,113.8,111.9,201.7h-246.8c2.8,37.7,28.4,67.2,64.1,75.6,24.8,5.8,51.4,2.1,73.5-10.9,11-6.5,16.6-17.8,25-29.4ZM2982.5,1834.2c-1.9-23.3-10.7-39.4-26.3-52.5-25.3-16.4-57.3-19.4-85.5-6.6-23.6,10.7-38.5,33.6-41.9,58.9l121.1.7,32.6-.6Z"/>
  <path d="M1826.5,1874.7c0,101.9-82.6,184.4-184.4,184.4s-184.4-82.6-184.4-184.4,82.6-184.4,184.4-184.4,184.4,82.6,184.4,184.4ZM1641.3,1973.2c39.7.4,71.8-23.8,83.2-61.1,15.7-50.9-1.5-113.2-54.8-131.7-41.8-14.5-89.2,6-106.2,46.9-12.6,30.5-12,64.9.2,95.1s43,50.4,77.6,50.7Z"/>
  <path d="M916.3,1969c32.1,10,77.7.7,96.9-35.2l49.7,8.9c13.3,2.4,26,4.7,38.9,10.8-24.1,63.5-80.9,102.1-147.1,105.6-59.1,3.1-117.5-19.7-154.7-66.9-65.1-82.6-50.1-208.4,37.2-269.2,17.7-12.3,37.7-20.9,58.4-26.8,14.4-4.2,29.4-5.3,44.7-5.7,70.4-1.9,136.7,37.4,161.8,107.2l-76.8,17.9-8.2,2.3c-2.2.6-4.3-4.1-6.2-6.6-18.4-25.6-48.4-38.9-80.9-34.2-66.1,9.4-88.9,82.7-69.3,138.4,8.9,25.3,30.1,45.8,55.6,53.8Z"/>
  <path d="M416.5,2024.4c-46.1,41.8-127.6,43.7-178.3,18.1-35.1-17.7-59.6-48.3-65.8-87.4,5.7-3.4,12.4-6.7,18.7-8l60.3-12c3.7,10.8,5.3,20.6,11.2,28.3,17.6,23,49.7,30.5,75.6,20.1,13.9-5.6,22.3-16.2,22.2-30.3,0-42.5-71-32.7-122.4-59.2-23.1-11.9-42.7-29.6-51.4-54.6-8.6-24.9-8.3-53.7,3.2-77.8,34.6-73,128.9-88.5,196.6-54.4,32.9,16.6,53.7,45.8,60.4,82-10.9,3.3-21.2,7-32,9.4l-45.1,9.7c-5.1-16.8-15.6-32.8-28.5-39.4-19.3-9.9-37.2-8.9-55.2-.7-16.9,7.8-25.7,28.3-14.2,44.4,8,11.3,22.4,14.3,35.4,16.6,53.2,9.6,117.4,23.2,137.9,81.8,14,39.9,2.7,84.9-28.7,113.4Z"/>
  <path d="M3625.3,2027.2c-32.3,26.9-68.9,33-109.9,31.6-62.8-2.1-120.3-38.8-132-104.5,14.4-6.7,28-9.1,42.7-12.1l36.9-7.4c3.3,20,13.9,35.9,31.1,44.9,19.8,10.4,42.4,11.7,61.7.7,13.3-7.6,19.9-20.7,14.8-36.6-3.8-11.7-16.3-20.4-29-23.4l-56.5-13.3c-22.5-5.3-42.9-15.1-60.3-29.8-38.1-32.1-41.8-92.8-13.8-132.2,20.8-29.3,52.7-48.3,88.9-53.2,70.3-9.5,146.4,21.6,158.3,98.2-12.8,3.5-24.2,6.8-36.5,9.5l-39.1,8.5c-4.9-9.4-9.7-20.2-16.4-28-16.2-19-43.1-22.9-65.4-13.4-9.3,4-17.3,11.3-19.6,18.5-3.4,10.7-2.7,21.9,4.1,29.5,8.8,9.7,21.4,12.2,33.8,14.5s30.6,6.1,45.9,9.9c55.8,14.1,101.2,50.4,97.2,113.5-1.8,28.6-14.7,56.1-37.1,74.7Z"/>
  <path d="M2383.5,1785.8c-18.8-1.4-35.2-3.7-52.6,1.4-44.5,13-62.6,53.2-64.4,97.1l-.3,174.7-94.3.3v-345c-.1,0,1.9-24.3,1.9-24.3l89.9.7.5,41.3c0,2.1,2.8,7,4.3,7.6,5-11.6,8.6-20.4,18.8-26.3s21-13.6,32.3-17c20.8-6.4,41.8-6.5,63.8-4.1v93.7Z"/>
</svg>