<?xml version="1.0" encoding="UTF-8"?>
<svg id="Camada_1" xmlns="http://www.w3.org/2000/svg" version="1.1" viewBox="0 0 300 91" width="300" height="91">
  <!-- Generator: Adobe Illustrator 30.2.1, SVG Export Plug-In . SVG Version: 2.1.1 Build 1)  -->
  <path d="M153.4,23.3c.9,20.4-10.2,53.6-33.3,57.2-9.9,1.6-17.9-5.1-18.2-15.3-.5-20.9,13.3-53.4,36.9-55.1s14.2,4.7,14.5,13.1ZM119.7,63.2c13.8,4.3,25-35.2,14.6-36.5-12-1.5-21.6,34.3-14.6,36.5Z"/>
  <polygon points="83.7 79 55.5 78.9 77.7 11.9 105.9 11.9 83.7 79"/>
  <path d="M270.5,44.6c-3.2.5-5.2,3.7-6,6.2l-9.1,28.2-13-.2,15.5-48,11.1-.2-.3,4.7c3.9-2.7,7.3-5.1,11.1-5.9s8.5,1.9,9,6.3.3,6.6-.4,8.9l-11,34.3h-12.9c0-.1,9.3-29.7,9.3-29.7.5-1.7-.7-5.1-3.4-4.6Z"/>
  <path d="M229.4,64.7h11.5c-4.4,11.5-19.7,20.6-29.7,13.1s-4.3-6.3-4.3-10.3c-.2-19.2,15.9-43.7,33.7-37.1s6.3,21.6,3.5,28.7h-23.2c-1.5,1.8-1.7,7,.3,8.7s5.5-.1,8.2-3.1ZM235,48.6c.3-3.8-.6-7.1-3-7.4-4.4-.5-7.7,3-7.7,7.4h10.7Z"/>
  <path d="M48,78.6c-6.2.4-12.2.4-19.4.3L50.7,11.9h19.2c0,0-22,66.7-22,66.7Z"/>
  <path d="M185.8,79.7c-5.1,1.3-10.9.4-14.4-2.8-3.9-3.5-3.5-9.3-1.8-13.6l10.9.2,1.3,4.9c.3,1.2,4.5.4,5.4-.5s2-3.5,1.7-4.6c-.9-3.5-8.9-2.7-12.2-8.6s-1.2-7.9,0-11.3c4.2-11.6,17.2-18.4,28.3-12s3.7,8.8,2.5,12.8h-10.5c-.8-1.8-1.7-4.3-2.9-4.6s-3.8,1.1-4.6,2.1.4,4.4,1.9,5l6,2.3c3.6,1.4,6.5,4.3,6.1,8.7-.8,10.2-7.5,19.5-17.9,22.1Z"/>
  <polygon points="158.5 78.8 145.9 78.9 167.6 12 180.2 11.9 158.5 78.8"/>
  <path d="M21.1,78.5c-3.1.5-6.2.5-9.7.1L33.4,12.1c3.5-.2,6.5-.2,9.6,0l-21.9,66.4Z"/>
</svg>